<svg width="20" height="20" viewBox="0 0 20 20" fill="none" xmlns="http://www.w3.org/2000/svg">
<path d="M16.9445 7.1875L12.9445 3.1875M16.9445 7.1875L11.946 12.1859C11.2873 12.8446 10.4878 13.3646 9.56993 13.5229C8.64311 13.6828 7.49294 13.736 6.94444 13.1875C6.39595 12.639 6.44915 11.4888 6.609 10.562C6.76731 9.6441 7.28735 8.8446 7.946 8.18595L12.9445 3.1875M16.9445 7.1875C16.9445 7.1875 19.9444 4.1875 17.9444 2.1875C15.9444 0.1875 12.9445 3.1875 12.9445 3.1875M18.5 10C18.5 16.5 16.5 18.5 10 18.5C3.5 18.5 1.5 16.5 1.5 10C1.5 3.5 3.5 1.5 10 1.5" stroke="#066E38" stroke-width="1.5" stroke-linecap="round" stroke-linejoin="round"/>
</svg>
