<svg width="21" height="16" viewBox="0 0 21 16" fill="none" xmlns="http://www.w3.org/2000/svg">
<path d="M10.5092 1C6.75177 1 3.94518 3.4404 2.27653 5.43934C1.02436 6.93936 1.02436 9.06064 2.27653 10.5607C3.94518 12.5596 6.75177 15 10.5092 15C14.2666 15 17.0731 12.5596 18.7418 10.5607C19.994 9.06064 19.994 6.93936 18.7418 5.43934C17.0731 3.4404 14.2666 1 10.5092 1Z" stroke="#066E38" stroke-width="1.5" stroke-linecap="round" stroke-linejoin="round"/>
<path d="M10.5092 11C12.166 11 13.5092 9.65685 13.5092 8C13.5092 6.34315 12.166 5 10.5092 5C8.8523 5 7.50916 6.34315 7.50916 8C7.50916 9.65685 8.8523 11 10.5092 11Z" stroke="#066E38" stroke-width="1.5" stroke-linecap="round" stroke-linejoin="round"/>
</svg>
